<svg version="1.1" xmlns="http://www.w3.org/2000/svg" xmlns:xlink="http://www.w3.org/1999/xlink" width="65" height="36.94135" viewBox="0,0,65,36.94135"><g transform="translate(-207.5,-146.7008)"><g data-paper-data="{&quot;isPaintingLayer&quot;:true}" fill-rule="nonzero" stroke-linejoin="miter" stroke-miterlimit="10" stroke-dasharray="" stroke-dashoffset="0" style="mix-blend-mode: normal"><path d="M207.5,179.72636c0,-2.01111 14.55075,-3.64144 32.5,-3.64144c17.94925,0 32.5,1.63032 32.5,3.64144c0,2.01111 -14.55075,3.64144 -32.5,3.64144c-17.94925,0 -32.5,-1.63032 -32.5,-3.64144z" fill="#cc2222" stroke="none" stroke-width="0" stroke-linecap="butt"/><path d="M207.5,150.42275c0,-2.01111 14.55075,-3.64144 32.5,-3.64144c17.94925,0 32.5,1.63032 32.5,3.64144c0,2.01111 -14.55075,3.64144 -32.5,3.64144c-17.94925,0 -32.5,-1.63032 -32.5,-3.64144z" fill="#cc2222" stroke="none" stroke-width="0" stroke-linecap="butt"/><path d="M207.53231,180.11685v-29.30079h64.93539v29.30079z" fill="#cc2222" stroke="none" stroke-width="0" stroke-linecap="butt"/><path d="M240,146.9508v36.44135" fill="none" stroke="#ffffff" stroke-width="0.5" stroke-linecap="round"/><path d="M251.63022,147.14463v35.85984" fill="none" stroke="#ffffff" stroke-width="0.5" stroke-linecap="round"/><path d="M228.36978,147.33847v35.666" fill="none" stroke="#ffffff" stroke-width="0.5" stroke-linecap="round"/><path d="M263.26044,148.11382v34.11531" fill="none" stroke="#ffffff" stroke-width="0.5" stroke-linecap="round"/><path d="M216.73956,148.11382v34.11531" fill="none" stroke="#ffffff" stroke-width="0.5" stroke-linecap="round"/><path d="M207.82306,178.25547h64.35388" fill="none" stroke="#ffffff" stroke-width="0.5" stroke-linecap="round"/><path d="M207.82306,171.85885h64.35388" fill="none" stroke="#ffffff" stroke-width="0.5" stroke-linecap="round"/><path d="M207.82306,165.46223h64.35388" fill="none" stroke="#ffffff" stroke-width="0.5" stroke-linecap="round"/><path d="M207.82306,159.06561h64.35388" fill="none" stroke="#ffffff" stroke-width="0.5" stroke-linecap="round"/><path d="M207.82306,152.66899h64.35388" fill="none" stroke="#ffffff" stroke-width="0.5" stroke-linecap="round"/></g></g></svg>