<svg version="1.1" xmlns="http://www.w3.org/2000/svg" xmlns:xlink="http://www.w3.org/1999/xlink" width="54" height="78" viewBox="0,0,54,78"><defs><linearGradient x1="240" y1="141" x2="240" y2="219" gradientUnits="userSpaceOnUse" id="color-1"><stop offset="0" stop-color="#ffee58"/><stop offset="1" stop-color="#ffa45e"/></linearGradient><linearGradient x1="240" y1="154" x2="240" y2="206" gradientUnits="userSpaceOnUse" id="color-2"><stop offset="0" stop-color="#ffa45e"/><stop offset="1" stop-color="#ffee58"/></linearGradient></defs><g transform="translate(-213,-141)"><g data-paper-data="{&quot;isPaintingLayer&quot;:true}" fill-rule="nonzero" stroke-linecap="butt" stroke-linejoin="miter" stroke-miterlimit="10" stroke-dasharray="" stroke-dashoffset="0" style="mix-blend-mode: normal"><path d="M213,180c0,-21.53911 12.08831,-39 27,-39c14.91169,0 27,17.46089 27,39c0,21.53911 -12.08831,39 -27,39c-14.91169,0 -27,-17.46089 -27,-39z" fill="url(#color-1)" stroke="#00ff3a" stroke-width="0"/><path d="M224.42308,180c0,-14.3594 6.97403,-26 15.57692,-26c8.6029,0 15.57692,11.6406 15.57692,26c0,14.3594 -6.97403,26 -15.57692,26c-8.6029,0 -15.57692,-11.6406 -15.57692,-26z" fill="url(#color-2)" stroke="#ff6f00" stroke-width="7.5"/></g></g></svg>