<svg version="1.1" xmlns="http://www.w3.org/2000/svg" xmlns:xlink="http://www.w3.org/1999/xlink" width="287.71393" height="36.94135" viewBox="0,0,287.71393,36.94135"><g transform="translate(-186.2273,-146.7008)"><g data-paper-data="{&quot;isPaintingLayer&quot;:true}" fill-rule="nonzero" stroke-linejoin="miter" stroke-miterlimit="10" stroke-dasharray="" stroke-dashoffset="0" style="mix-blend-mode: normal"><path d="M263.89133,148.11383v34.11531" data-paper-data="{&quot;index&quot;:null}" fill="none" stroke="#ffffff" stroke-width="0.5" stroke-linecap="round"/><path d="M186.22731,179.72638c0,-2.01111 64.40697,-3.64144 143.85696,-3.64144c79.44999,0 143.85697,1.63032 143.85697,3.64144c0,2.01111 -64.40698,3.64144 -143.85695,3.64144c-79.44999,0 -143.85695,-1.63032 -143.85695,-3.64144z" data-paper-data="{&quot;index&quot;:null}" fill="#cc2222" stroke="none" stroke-width="0" stroke-linecap="butt"/><path d="M186.22731,150.42277c0,-2.01111 64.40697,-3.64144 143.85696,-3.64144c79.44999,0 143.85697,1.63032 143.85697,3.64144c0,2.01111 -64.40698,3.64144 -143.85695,3.64144c-79.44999,0 -143.85695,-1.63032 -143.85695,-3.64144z" data-paper-data="{&quot;index&quot;:null}" fill="#cc2222" stroke="none" stroke-width="0" stroke-linecap="butt"/><path d="M186.37032,180.11687v-29.30079h287.42793v29.30079z" data-paper-data="{&quot;index&quot;:null}" fill="#cc2222" stroke="none" stroke-width="0" stroke-linecap="butt"/><path d="M187.6573,178.25549h284.85394" data-paper-data="{&quot;index&quot;:null}" fill="none" stroke="#ffffff" stroke-width="0.5" stroke-linecap="round"/><path d="M472.51124,171.85886h-284.85394" data-paper-data="{&quot;index&quot;:null}" fill="none" stroke="#ffffff" stroke-width="0.5" stroke-linecap="round"/><path d="M472.51124,165.46222h-284.85394" data-paper-data="{&quot;index&quot;:null}" fill="none" stroke="#ffffff" stroke-width="0.5" stroke-linecap="round"/><path d="M472.51124,159.06562h-284.85394" data-paper-data="{&quot;index&quot;:null}" fill="none" stroke="#ffffff" stroke-width="0.5" stroke-linecap="round"/><path d="M472.51124,152.66901h-284.85394" data-paper-data="{&quot;index&quot;:null}" fill="none" stroke="#ffffff" stroke-width="0.5" stroke-linecap="round"/><path d="M231.49382,183.39216v-36.44135" data-paper-data="{&quot;index&quot;:null}" fill="none" stroke="#ffffff" stroke-width="0.5" stroke-linecap="round"/><path d="M247.69257,147.14464v35.85984" data-paper-data="{&quot;index&quot;:null}" fill="none" stroke="#ffffff" stroke-width="0.5" stroke-linecap="round"/><path d="M215.29506,183.00449v-35.666" data-paper-data="{&quot;index&quot;:null}" fill="none" stroke="#ffffff" stroke-width="0.5" stroke-linecap="round"/><path d="M199.09631,182.22912v-34.11531" data-paper-data="{&quot;index&quot;:null}" fill="none" stroke="#ffffff" stroke-width="0.5" stroke-linecap="round"/><path d="M298.67499,183.39216v-36.44135" data-paper-data="{&quot;index&quot;:null}" fill="none" stroke="#ffffff" stroke-width="0.5" stroke-linecap="round"/><path d="M314.87375,183.00449v-35.85984" data-paper-data="{&quot;index&quot;:null}" fill="none" stroke="#ffffff" stroke-width="0.5" stroke-linecap="round"/><path d="M282.47624,183.00449v-35.666" data-paper-data="{&quot;index&quot;:null}" fill="none" stroke="#ffffff" stroke-width="0.5" stroke-linecap="round"/><path d="M266.27748,182.22914v-34.11531" data-paper-data="{&quot;index&quot;:null}" fill="none" stroke="#ffffff" stroke-width="0.5" stroke-linecap="round"/><path d="M366.5035,183.39216v-36.44135" data-paper-data="{&quot;index&quot;:null}" fill="none" stroke="#ffffff" stroke-width="0.5" stroke-linecap="round"/><path d="M382.70226,147.14464v35.85984" data-paper-data="{&quot;index&quot;:null}" fill="none" stroke="#ffffff" stroke-width="0.5" stroke-linecap="round"/><path d="M350.30475,147.33849v35.666" data-paper-data="{&quot;index&quot;:null}" fill="none" stroke="#ffffff" stroke-width="0.5" stroke-linecap="round"/><path d="M334.106,148.11382v34.11531" data-paper-data="{&quot;index&quot;:null}" fill="none" stroke="#ffffff" stroke-width="0.5" stroke-linecap="round"/><path d="M427.25786,146.9508v36.44135" data-paper-data="{&quot;index&quot;:null}" fill="none" stroke="#ffffff" stroke-width="0.5" stroke-linecap="round"/><path d="M443.45662,183.00449v-35.85984" data-paper-data="{&quot;index&quot;:null}" fill="none" stroke="#ffffff" stroke-width="0.5" stroke-linecap="round"/><path d="M411.05911,147.33847v35.666" data-paper-data="{&quot;index&quot;:null}" fill="none" stroke="#ffffff" stroke-width="0.5" stroke-linecap="round"/><path d="M394.86036,148.11383v34.11531" data-paper-data="{&quot;index&quot;:null}" fill="none" stroke="#ffffff" stroke-width="0.5" stroke-linecap="round"/><path d="M455.6147,182.22914v-34.11531" data-paper-data="{&quot;index&quot;:null}" fill="none" stroke="#ffffff" stroke-width="0.5" stroke-linecap="round"/></g></g></svg>