<svg version="1.1" xmlns="http://www.w3.org/2000/svg" xmlns:xlink="http://www.w3.org/1999/xlink" width="103.23377" height="8.52883" viewBox="0,0,103.23377,8.52883"><g transform="translate(-188.79072,-175.73558)"><g data-paper-data="{&quot;isPaintingLayer&quot;:true}" fill-rule="nonzero" stroke="none" stroke-width="0" stroke-linecap="butt" stroke-linejoin="miter" stroke-miterlimit="10" stroke-dasharray="" stroke-dashoffset="0" style="mix-blend-mode: normal"><path d="M188.79072,184.26442v-8.52883h102.41857v8.52883z" fill="#ffe500"/><path d="M212.11613,184.26442l4.65209,-8.52883h5.81511l-4.65209,8.52883z" fill="#292500"/><path d="M223.74635,184.26442l4.65208,-8.52883h5.81511l-4.65209,8.52883z" fill="#292500"/><path d="M235.37657,184.26442l4.65208,-8.52883h5.81511l-4.65209,8.52883z" fill="#292500"/><path d="M200.48591,184.26442l4.65208,-8.52883h5.81511l-4.65209,8.52883z" fill="#292500"/><path d="M188.8557,184.26442l4.65208,-8.52883h5.81511l-4.65209,8.52883z" fill="#292500"/><path d="M269.92708,184.26442l4.65209,-8.52883h5.81511l-4.65209,8.52883z" fill="#292500"/><path d="M281.5573,184.26442l4.65208,-8.52883h5.81511l-4.65209,8.52883z" fill="#292500"/><path d="M258.29686,184.26442l4.65208,-8.52883h5.81511l-4.65209,8.52883z" fill="#292500"/><path d="M246.66665,184.26442l4.65208,-8.52883h5.81511l-4.65209,8.52883z" fill="#292500"/></g></g></svg>