<svg version="1.1" xmlns="http://www.w3.org/2000/svg" xmlns:xlink="http://www.w3.org/1999/xlink" width="595.20631" height="200.51026" viewBox="0,0,595.20631,200.51026"><defs><linearGradient x1="237.52053" y1="-148.87833" x2="237.52053" y2="51.63192" gradientUnits="userSpaceOnUse" id="color-1"><stop offset="0" stop-color="#ffffff"/><stop offset="1" stop-color="#636363"/></linearGradient></defs><g transform="translate(60.08263,148.87833)"><g data-paper-data="{&quot;isPaintingLayer&quot;:true}" fill-rule="nonzero" stroke-linecap="butt" stroke-linejoin="miter" stroke-miterlimit="10" stroke-dasharray="" stroke-dashoffset="0" style="mix-blend-mode: normal"><path d="M-60.08263,-48.6232c0,-55.36938 133.24147,-100.25513 297.60316,-100.25513c164.36168,0 297.60315,44.88575 297.60315,100.25513c0,55.36938 -133.24147,100.25513 -297.60315,100.25513c-164.36168,0 -297.60315,-44.88574 -297.60315,-100.25512z" fill="url(#color-1)" stroke="none" stroke-width="0"/><path d="M204.24612,28.79081c0,-10.28455 16.00757,-18.62182 35.7539,-18.62182c19.74633,0 35.7539,8.33727 35.7539,18.62182c0,10.28455 -16.00757,18.62182 -35.7539,18.62182c-19.74633,0 -35.7539,-8.33727 -35.7539,-18.62182z" fill="#ff6300" stroke="#505050" stroke-width="7.5"/><path d="M60.22724,13.22956c1.69077,-10.14462 18.85117,-15.73683 38.32884,-12.49055c19.47766,3.24628 33.89679,14.10174 32.20602,24.24636c-1.69077,10.14462 -18.85117,15.73682 -38.32884,12.49055c-19.47766,-3.24628 -33.89679,-14.10174 -32.20602,-24.24636z" fill="#ff0000" stroke="#505050" stroke-width="7.5"/><path d="M386.07701,37.47591c-19.47767,3.24627 -36.63807,-2.34592 -38.32884,-12.49054c-1.69077,-10.14462 12.72836,-21.00008 32.20602,-24.24636c19.47767,-3.24627 36.63807,2.34593 38.32884,12.49055c1.69077,10.14462 -12.72836,21.00008 -32.20602,24.24635z" data-paper-data="{&quot;index&quot;:null}" fill="#ff0000" stroke="#505050" stroke-width="7.5"/></g></g></svg>