<svg version="1.1" xmlns="http://www.w3.org/2000/svg" xmlns:xlink="http://www.w3.org/1999/xlink" width="586.83559" height="469.52027" viewBox="0,0,586.83559,469.52027"><g transform="translate(98.08559,92.77027)"><g data-paper-data="{&quot;isPaintingLayer&quot;:true}" fill-rule="nonzero" stroke-linecap="butt" stroke-linejoin="miter" stroke-miterlimit="10" stroke-dasharray="" stroke-dashoffset="0" style="mix-blend-mode: normal"><path d="M-8,376v-392h496v392z" fill="#000000" stroke="#000000" stroke-width="1.5"/><path d="M-98.08559,-90.27027c0,-1.38071 1.11929,-2.5 2.5,-2.5c1.38071,0 2.5,1.11929 2.5,2.5c0,1.38071 -1.11929,2.5 -2.5,2.5c-1.38071,0 -2.5,-1.11929 -2.5,-2.5z" fill="#ffffff" stroke="none" stroke-width="0.5"/><path d="M61.59012,35.92831c-0.69036,0.23618 -1.24816,0.20194 -1.69198,0.03502c-2.50029,4.17235 -3.83917,8.93559 -6.75978,12.80935c-1.09194,1.44829 -1.96017,3.69232 -3.75756,3.93566c-4.30977,0.58348 -6.80029,-6.34365 -8.07896,-9.10513c-0.55402,-1.19651 -1.0285,-2.43297 -1.65969,-3.59063c-0.21456,-0.39353 -0.44029,-1.18702 -0.86112,-1.03275c-0.40248,0.14753 0.3526,0.85759 0.22367,1.26642c-0.48191,1.52812 -1.45063,2.86579 -2.00134,4.37049c-1.03404,2.82533 -1.80908,5.81849 -2.57025,8.80432h0.15103l0,4.13947c0,1.38071 -1.11929,2.5 -2.5,2.5c-0.998,0 -1.85942,-0.58479 -2.26028,-1.4304l-1.19613,-2.39224c-2.25971,-4.25503 -4.99993,-8.16306 -7.35193,-12.36028c-2.11735,-3.77849 -4.08394,-9.45755 -6.95891,-12.6808c-0.98725,-1.10684 -2.43739,-1.69063 -3.65608,-2.53594c0,0 -2.03434,-1.45309 -0.58125,-3.48743c1.45309,-2.03434 3.48743,-0.58125 3.48743,-0.58125c1.49376,1.09214 3.24956,1.89549 4.48127,3.27642c3.1197,3.49762 5.28673,9.45142 7.58545,13.55775c1.5146,2.70561 3.18601,5.29329 4.7918,7.92801c0.17183,-0.47404 0.3385,-0.94807 0.46466,-1.42457c1.10925,-4.18944 1.46934,-5.93526 3.56527,-9.75821c0.74451,-1.35797 1.05008,-3.5612 2.56717,-3.87235c5.6724,-1.1634 7.01281,3.66064 8.77882,7.12369c0.88553,1.73647 1.85623,3.43211 2.65601,5.2097c0.15691,0.34875 -0.0294,1.40593 0.22913,1.12414c0.35027,-0.38177 -0.01119,-1.0566 0.15815,-1.54626c0.32396,-0.93676 0.86514,-1.78366 1.30126,-2.67376c2.36008,-4.81671 4.52368,-9.57159 7.99697,-13.71169l5.00334,2.92861c0,0 0.80924,2.3654 -1.55617,3.17464z" fill="#ffffff" stroke="none" stroke-width="0.5"/><path d="M77.76998,53.01129c-0.13955,1.88986 -2.17046,2.16064 -2.17046,2.16064c-2.98885,0.39845 -7.61507,1.80748 -10.44955,0.34686c-4.5131,-2.32561 -4.16048,-5.5356 -3.82472,-9.96704c0.3971,-5.24106 2.73702,-12.32463 7.4667,-15.37314c1.20813,-0.7787 7.20524,-4.04205 9.46951,-2.89633c8.87988,4.49322 5.14626,14.88231 1.87326,21.49768c-0.79939,1.61573 -1.35893,3.06015 -2.36474,4.23132zM67.7081,51.10425c0.92468,-2.24403 3.20885,-1.35573 3.20885,-1.35573l0.23946,0.22544c0.69188,0.09919 1.40508,0.49475 2.07565,0.29758c1.19409,-0.35111 2.08439,-3.01587 2.41407,-3.69439c1.30797,-2.69196 2.60755,-5.51464 2.9176,-8.49143c0.27054,-2.59745 0.64379,-4.58226 -1.92373,-6.07364c-0.35644,-0.20705 -0.77833,0.27489 -1.15376,0.44511c-1.27962,0.58017 -2.62371,1.05051 -3.80897,1.80495c-3.61745,2.30255 -4.89374,7.9412 -5.37517,11.77035c-0.11946,0.95012 -1.02076,4.29821 0.9619,4.95521c0.14227,0.04715 0.29058,0.08571 0.4441,0.11655z" fill="#ffffff" stroke="none" stroke-width="0.5"/><path d="M124.62028,33.90537c-2.55541,4.04139 -4.34454,8.38768 -6.34206,12.86152c-1.43222,3.6283 -3.4992,13.5838 -8.85947,13.84902c-1.79034,0.08858 -2.61555,-2.45502 -3.84629,-3.75826c-1.53713,-1.62767 -3.19999,-3.81141 -4.32659,-5.86753c-0.06807,0.4543 -0.15731,0.90783 -0.22718,1.35648c-0.40572,2.60534 -0.5778,8.43129 -5.23119,8.38213c-1.7594,-0.01858 -4.59469,-4.23104 -5.39038,-5.80922c-3.18182,-6.31082 -2.31604,-13.25733 -4.77065,-19.69567c0,0 -0.87781,-2.34082 1.46301,-3.21863c2.34082,-0.87781 3.21863,1.46301 3.21863,1.46301c1.93382,5.23068 1.57088,10.48811 3.09655,15.80937c0.119,0.41506 1.56066,2.70446 2.30232,4.47616c0.11895,-0.68447 0.27442,-1.36637 0.35388,-2.05515c0.23295,-2.01941 0.24574,-8.494 2.78596,-8.9565c3.87094,-0.70479 6.93533,6.23783 8.48069,8.44047c0.65188,0.92914 1.65702,1.60463 2.19195,2.60568c0.28978,0.54229 -0.43346,1.84456 0.18133,1.83563c0.63524,-0.00923 0.26924,-1.2449 0.47722,-1.8452c0.43217,-1.2474 3.08272,-7.91601 3.49092,-8.9494c2.75735,-6.17959 5.20827,-12.06517 9.42734,-17.40699l2.4342,3.14474l1.48305,-0.03745c-0.25837,0.32416 -0.50935,0.65085 -0.75352,0.97994l0.46075,0.59524c0,0 -0.51225,1.69441 -2.10045,1.80063z" fill="#ffffff" stroke="none" stroke-width="0.5"/><path d="M135.42753,60.67491c-2.21938,-1.1508 -1.06858,-3.37018 -1.06858,-3.37018l1.35318,-2.44688c1.82098,-7.65259 1.88299,-15.41228 2.62901,-23.21192c0.47836,-5.00121 1.11352,-9.16927 0.509,-14.18218c0,0 -0.29081,-2.48303 2.19222,-2.77384c2.48303,-0.29081 2.77384,2.19222 2.77384,2.19222c0.61279,5.37437 0.01386,9.89281 -0.49792,15.24146c-0.76885,8.03538 -0.87574,16.00008 -2.74113,23.88823l-1.77943,3.59452c0,0 -1.1508,2.21938 -3.37018,1.06858z" fill="#ffffff" stroke="none" stroke-width="0.5"/><path d="M139.81089,77.005c-2.49513,0.1559 -2.65104,-2.33923 -2.65104,-2.33923l0.0282,-1.712c0.31699,-1.15607 0.63398,-2.31214 0.95097,-3.46821c0,0 0.66109,-2.41101 3.0721,-1.74992c2.41101,0.66109 1.74992,3.0721 1.74992,3.0721c-0.31699,1.15607 -0.63398,2.31214 -0.95097,3.46821l0.14005,0.07802c0,0 0.1559,2.49513 -2.33923,2.65104z" fill="#ffffff" stroke="none" stroke-width="0.5"/><path d="M171.71676,58.94815c-2.39452,-0.71852 -1.676,-3.11304 -1.676,-3.11304l0.08338,-0.16421c2.14097,-16.38674 7.83993,-33.29696 2.07856,-49.58307c0,0 -0.8298,-2.35827 1.52847,-3.18807c2.35827,-0.8298 3.18807,1.52847 3.18807,1.52847c6.02955,17.21954 0.41756,34.57045 -1.83709,51.8893l-0.25235,0.95462c0,0 -0.71852,2.39452 -3.11304,1.676z" fill="#ffffff" stroke="none" stroke-width="0.5"/><path d="M172.68839,77.61728c-1.08561,0.95535 -2.09587,0.73012 -2.75471,0.37045c-0.34837,0.39714 -0.69673,0.79427 -1.0451,1.19141c0,0 -1.6486,1.87939 -3.52799,0.23079c-1.87939,-1.6486 -0.23079,-3.52799 -0.23079,-3.52799c0.93232,-1.06283 1.86463,-2.12567 2.79695,-3.1885l4.98684,1.39549c0,0 1.65158,1.87677 -0.22519,3.52836z" fill="#ffffff" stroke="none" stroke-width="0.5"/><path d="M220.47206,88.70939l-2.92364,-0.83829c3.48001,-5.97794 5.76408,-12.28063 8.05741,-18.79845c0.1322,-0.37571 0.26431,-0.75115 0.39622,-1.12639c-0.0349,-0.65293 -0.10119,-1.30072 -0.25815,-1.93368c-1.44309,-5.81936 -8.72548,-9.66111 -12.73957,-13.46313c-4.48663,-4.24959 -7.99162,-8.80819 -11.47224,-13.88002c0,0 -1.41459,-2.06129 0.6467,-3.47589c2.06129,-1.41459 3.47589,0.6467 3.47589,0.6467c3.28379,4.78502 6.55943,9.07031 10.79143,13.08234c3.8736,3.67225 9.11922,6.87214 12.15378,11.47416c1.83274,-5.52954 3.46155,-11.09697 4.53262,-16.88542c0,0 0.45614,-2.45803 2.91418,-2.00189c2.45803,0.45614 2.00189,2.91418 2.00189,2.91418c-1.56302,8.39945 -4.23376,16.3485 -7.04635,24.37351c0.02017,0.41323 0.04518,0.82557 0.08561,1.23508l-0.70117,2.23939c0,0 -0.3323,0.6646 -0.9969,1.08799c-1.82827,5.0914 -3.75608,10.03482 -6.29036,14.80921c-0.11519,0.67065 -0.46434,1.16081 -0.46434,1.16081l-0.14313,-0.04104c-0.20263,0.36544 -0.40908,0.72987 -0.6196,1.09328z" fill="#ffffff" stroke="none" stroke-width="0.5"/><path d="M260.97855,72.37018c0.49654,1.0358 1.03051,2.06115 1.61546,3.07384c0,0 1.24743,2.16655 -0.91912,3.41397c-2.16655,1.24743 -3.41397,-0.91912 -3.41397,-0.91912c-2.4564,-4.27904 -3.98777,-8.44538 -5.65396,-13.07743c-1.56854,-4.36059 -4.09825,-8.21718 -2.95248,-13.05607c2.26216,-9.55374 16.95292,-12.58095 22.74761,-4.20025c3.35725,4.8555 0.7955,11.23432 -1.93634,15.47436c-1.93716,3.00664 -4.68938,5.45714 -7.48479,7.68832zM258.93408,67.60244l0.94242,-0.75413c3.53874,-2.77854 6.95234,-5.86433 8.52268,-10.28602c0.43125,-1.21429 0.7863,-4.83801 -0.14389,-6.16359c-1.82367,-2.59884 -7.89754,-3.27873 -10.39895,-1.90309c-4.26979,2.34816 -3.75827,6.33895 -2.25526,10.18236c1.17249,2.99821 2.18814,5.98853 3.33299,8.92447z" fill="#ffffff" stroke="none" stroke-width="0.5"/><path d="M304.52683,88.5551c-2.46599,0.41096 -2.87695,-2.05503 -2.87695,-2.05503l-0.13724,-0.85333c-2.06735,-8.91894 -3.08593,-19.37886 -1.96268,-28.9771c-2.17593,5.48332 -4.52271,10.99951 -7.60776,15.95178c-1.13064,1.81495 -1.87214,4.20781 -3.77225,5.1886c-5.63797,2.91017 -7.08731,-2.90719 -8.3641,-6.28889c-1.10466,-2.92581 -1.39535,-6.0977 -2.02502,-9.16105c-0.57683,-2.80627 -1.69368,-7.39215 -1.0525,-10.3283c0.35139,-1.6091 1.44469,-2.96034 2.16703,-4.44052c0,0 1.13096,-2.22956 3.36052,-1.0986c2.22956,1.13096 1.0986,3.36052 1.0986,3.36052c-0.58291,1.093 -1.46751,2.07262 -1.74874,3.279c-0.89101,3.82211 1.33814,9.40666 2.13878,13.06833c0.27704,1.26701 0.5001,2.54678 0.82523,3.80231c0.30106,1.1626 0.7294,4.34879 1.36926,3.3325c4.65288,-7.39015 7.92657,-15.89682 11.1179,-23.98064l0.08184,-0.09382l-0.02952,-0.01507l1.62324,-3.17911c0.40483,-0.835 1.26061,-1.41073 2.25086,-1.41073c1.11037,0 2.05167,0.72389 2.37771,1.72549l1.63939,4.66204l-0.03679,0.01294c0.05484,0.1514 0.10588,0.30445 0.15272,0.45932c0.06392,0.21133 -0.47419,9.89182 -0.49023,10.41978c-0.14002,4.60647 -0.66653,9.84837 -0.15085,14.42743c0.31241,2.77415 1.27784,5.43518 1.90822,8.15476l0.19836,1.16045c0,0 0.41096,2.46599 -2.05503,2.87695z" fill="#ffffff" stroke="none" stroke-width="0.5"/><path d="M386.14485,44.71695c1.76775,-1.76779 3.53553,-0.00004 3.53553,-0.00004l1.80472,4.40063c-4.54993,8.01324 -9.71671,15.20522 -15.4802,22.38866c-2.10543,3.19735 -4.32883,6.29623 -6.07473,9.70684c-1.43907,2.81122 -2.10687,6.10448 -4.13742,8.52332c-1.21814,1.45108 -2.60999,3.62716 -4.4984,3.47418c-2.73637,-0.22168 -4.28574,-7.52812 -4.77634,-8.98793c-0.70712,-2.10408 -1.90473,-4.06295 -3.32174,-5.77153c-0.81757,-0.9858 -2.14611,-1.71084 -2.458,-2.95299c-1.06949,-4.25934 1.72286,-10.58479 3.24422,-14.43852c1.20505,-3.05249 1.99503,-4.77313 3.03013,-7.8672c0.10543,-0.31515 0.19441,-0.63664 0.27685,-0.96056c-1.23114,1.70046 -2.44919,3.41147 -3.43828,5.25795c-3.58046,8.02381 -6.43504,16.11291 -8.67904,24.62294c-0.54713,2.07492 -2.01567,9.95435 -5.08119,10.37572c-4.57246,0.62851 -5.59192,-7.68338 -5.91674,-9.75443c-1.24896,-7.96348 -0.66509,-16.60966 -2.90486,-24.41566c-1.14004,-3.97326 -4.04265,-7.52954 -6.74495,-10.49354c0,0 -1.67573,-1.85525 0.17952,-3.53097c1.85525,-1.67573 3.53097,0.17952 3.53097,0.17952c3.16057,3.52794 6.43273,7.65451 7.7992,12.32935c1.3615,4.65783 1.71668,10.48664 2.2694,15.31606c0.37592,3.28468 0.36874,6.60907 0.81705,9.88466c0.06636,0.48488 0.1737,0.96355 0.29031,1.44065c0.32871,-0.90381 0.71798,-1.81024 0.92555,-2.60248c2.31534,-8.8369 5.30421,-17.23447 9.02867,-25.55975c0.85209,-1.57122 1.53104,-3.24953 2.55627,-4.71366c2.50504,-3.57744 11.13984,-11.48266 11.35565,-1.23824c0.03951,1.87557 -0.94708,3.63219 -1.5134,5.42066c-1.29194,4.08001 -3.40584,7.89484 -4.63149,11.98554c-0.4503,1.5029 -0.68072,3.06311 -1.02631,4.59348c-0.19887,0.88064 -0.80301,1.75825 -0.60705,2.63954c0.13599,0.61158 1.0356,0.7235 1.45778,1.18642c0.96682,1.06011 1.97236,2.11796 2.68927,3.36079c0.46801,0.81134 1.80389,4.54384 2.53918,6.90454c0.31016,-0.66795 0.6686,-1.31881 0.98673,-1.98072c2.53384,-5.27201 5.57245,-10.00261 8.79094,-14.87684c5.63947,-7.04435 10.71644,-14.06327 15.17443,-21.9146l-0.99222,1.60374c0,0 -1.76779,-1.76775 -0.00004,-3.53553z" fill="#ffffff" stroke="none" stroke-width="0.5"/><path d="M387.03059,91.67841c0.5182,-0.64159 1.07711,-0.90058 1.59347,-0.95957c1.31111,-6.83323 2.20981,-13.59187 2.66708,-20.59752c0.04748,-0.72743 0.64552,-7.95032 0.27703,-9.02436c-0.46342,-1.35075 -1.70832,-2.28883 -2.56248,-3.43324c0,0 -1.44576,-2.03956 0.5938,-3.48531c2.03956,-1.44576 3.48531,0.5938 3.48531,0.5938c1.07351,1.575 2.61697,2.91702 3.22054,4.72499c0.73637,2.20576 0.12933,8.57019 -0.02474,10.94854c-0.5395,8.32841 -1.69362,16.33061 -3.40389,24.49104l-5.4721,0.25733c0,0 -1.94486,-1.57083 -0.37402,-3.51569z" fill="#ffffff" stroke="none" stroke-width="0.5"/><path d="M403.59613,36.40738c-2.45292,-0.48288 -1.97004,-2.9358 -1.97004,-2.9358l0.78269,-3.96528c0.25536,-1.64699 0.51072,-3.29398 0.76608,-4.94096c0,0 0.38304,-2.47048 2.85352,-2.08744c2.47048,0.38304 2.08744,2.85352 2.08744,2.85352c-0.25536,1.64699 -0.51072,3.29398 -0.76608,4.94096l-0.81781,4.16496c0,0 -0.48288,2.45292 -2.9358,1.97004z" fill="#ffffff" stroke="none" stroke-width="0.5"/><path d="M415.84899,101.68081c-1.15955,-2.21482 1.05527,-3.37437 1.05527,-3.37437l-0.26908,0.93709c3.01239,-9.08501 4.05535,-19.21657 3.96689,-28.77178c-0.02951,-3.18768 0.24515,-6.38886 -0.04621,-9.56333c-0.09571,-1.0428 -0.10532,-2.19972 -0.69803,-3.06301c-0.24975,-0.36376 -1.03664,-0.21303 -1.31761,0.12719c-0.49232,0.59616 -0.34006,1.51564 -0.63073,2.23209c-1.20168,2.9619 -2.48646,5.90456 -3.38233,8.97283c-1.39391,4.77404 -2.03777,9.36661 -2.61969,14.30639c-0.00987,0.08381 -1.03947,9.97688 -1.04373,9.98892c-0.00865,0.02441 -0.0174,0.04878 -0.02626,0.07309l0.01485,0.00248l-0.55266,3.31576c-0.17901,1.20502 -1.21791,2.12952 -2.47274,2.12952c-1.36345,0 -2.47197,-1.09147 -2.49948,-2.44834l-0.10075,-4.27032c-0.43528,-12.18583 -0.72218,-24.36267 -1.79207,-36.50895c0,0 -0.21936,-2.49036 2.271,-2.70972c2.49036,-0.21936 2.70972,2.271 2.70972,2.271c0.39436,4.4771 0.68358,8.95823 0.91327,13.44239c0.5099,-2.01184 1.11831,-4.00471 1.86075,-5.9743c0.16021,-0.42502 3.92759,-8.6808 4.60801,-9.00336c9.39448,-4.45368 9.68952,5.99213 9.76024,11.63563c0.14886,11.87839 -0.44974,24.02036 -4.17375,35.38104l-2.16051,1.92734c0,0 -2.21482,1.15955 -3.37437,-1.05527z" fill="#ffffff" stroke="none" stroke-width="0.5"/><path d="M433.74055,91.56072c-1.49997,-2.00002 0.50005,-3.49999 0.50005,-3.49999l-0.19696,0.69556c3.53431,-10.3669 2.47961,-20.45513 2.40352,-31.18122c-0.08528,-12.02184 0.69985,-24.72172 3.05115,-36.52921c0,0 0.49026,-2.45146 2.94172,-1.96119c2.45146,0.49026 1.96119,2.94172 1.96119,2.94172c-2.30284,11.46211 -3.037,23.84026 -2.95419,35.51322c0.08033,11.32351 1.01352,21.85907 -2.66701,32.81876l-1.53948,1.70242c0,0 -2.00002,1.49997 -3.49999,-0.50005z" fill="#ffffff" stroke="none" stroke-width="0.5"/><path d="M439.53664,103.52252c-0.29145,0.01215 -0.5503,-0.01113 -0.78021,-0.06173c-0.17218,0.14407 -0.34436,0.28814 -0.51654,0.4322c0,0 -1.91734,1.60431 -3.52165,-0.31303c-1.60431,-1.91734 0.31303,-3.52165 0.31303,-3.52165c0.91366,-0.7645 1.82733,-1.52899 2.74099,-2.29349l4.15809,3.15575c0,0 0.10411,2.49783 -2.39373,2.60194z" fill="#ffffff" stroke="none" stroke-width="0.5"/><path d="M174.43732,219.87617c-0.82131,-2.36124 1.53993,-3.18255 1.53993,-3.18255l1.11413,-0.38028c0.06193,-0.02683 0.12385,-0.05365 0.18575,-0.08045c-0.05001,-14.48649 2.47404,-28.84216 7.67356,-42.35341c-1.4818,-1.88251 -2.59221,-3.84667 -1.49664,-6.66467c0.49783,-1.28051 1.99495,-1.88954 2.99242,-2.83431c0,0 1.41361,-1.17225 2.8224,-0.29579c2.45596,-4.91673 5.29504,-9.68879 8.52267,-14.27803c4.10798,-5.84098 8.78045,-12.40167 14.96375,-16.27604c3.91177,-2.45106 9.71052,-5.52559 14.10336,-6.93906c4.88141,-1.57067 10.59534,-1.76118 15.65655,-1.71057c8.4413,0.08442 16.74855,0.96261 24.76541,3.94494c8.3219,3.09581 14.63455,9.0144 21.339,14.58382c0.48177,0.62639 0.98515,1.25553 1.50277,1.88788c1.28503,0.38418 1.63515,1.32594 1.70376,2.0443c3.05323,3.61992 6.30808,7.35839 8.42432,11.29911c4.4961,8.37234 7.85173,19.42948 7.31458,29.01546c-0.40058,7.14886 -2.46331,13.95695 -5.41393,20.4792c0.13953,0.06093 0.28191,0.12275 0.42738,0.18546l1.30673,0.75464c0,0 2.14766,1.27967 0.86799,3.42733c-1.27967,2.14766 -3.42733,0.86799 -3.42733,0.86799l-0.7355,-0.46221c-0.21549,-0.0939 -0.42444,-0.18623 -0.62779,-0.27691c-4.65248,8.95522 -10.69471,17.3745 -15.99806,25.40885c-4.1042,6.21306 -8.80942,12.85479 -14.89056,17.31486c-5.63876,4.13562 -12.45653,6.12117 -18.99251,8.24574l-5.52384,1.44824c0,0 -2.41874,0.6322 -3.05095,-1.78654c-0.6322,-2.41874 1.78654,-3.05095 1.78654,-3.05095l5.24257,-1.36584c6.01487,-1.95517 12.3886,-3.71416 17.58113,-7.52249c5.5886,-4.09883 9.91,-10.3296 13.67473,-16.03746c5.10157,-7.72867 11.04774,-15.88981 15.59532,-24.57538c-1.0381,-0.33725 -2.15814,-0.59438 -3.55236,-0.75591c-10.69322,-1.23889 -20.8967,2.715 -31.38888,3.67728c-1.27551,5.62684 -3.11368,11.16622 -5.34358,16.37708c0.78625,0.46543 1.55615,0.95728 2.30987,1.4647c0,0 2.06871,1.40372 0.66499,3.47243c-1.40372,2.06871 -3.47243,0.66499 -3.47243,0.66499c-2.11126,-1.44563 -4.37215,-2.77009 -6.81392,-3.53494c-4.70956,-1.4752 -8.66914,-1.03679 -11.50198,-6.26048c-0.94442,-1.7415 -0.91574,-3.8629 -1.16154,-5.82869c-0.36904,-2.95133 -0.1189,-6.45317 0.65073,-9.96154c-3.73955,1.41644 -7.65289,2.558 -11.46527,2.87746c-0.04792,3.52068 -0.57614,7.13885 -1.68134,10.19736c-1.23903,3.42887 -2.28619,6.30005 -6.68685,6.05063c-1.43545,-0.08136 -2.56894,-1.29194 -3.85342,-1.93791l-0.44027,-0.04416c0,0 -1.2381,-0.34395 -1.69244,-1.4263c-0.69567,0.45471 -1.49822,0.45471 -1.49822,0.45471c-4.40771,-0.14899 -5.95908,-1.85071 -9.2527,-4.54168c-2.10758,-1.72195 -4.77739,-2.99829 -5.74332,-5.84238c-0.19189,-0.56501 -0.32837,-1.1451 -0.41434,-1.73652c-3.45696,2.0857 -7.0451,3.78026 -10.71938,5.40528c0.29544,9.42177 1.72025,18.87842 4.24081,28.15848c2.23227,8.3427 6.9787,16.44556 13.60979,22.1034c5.66472,4.8333 15.28437,8.70526 22.3897,10.52263c7.51581,1.92236 16.02466,-0.7547 22.93354,-3.56321c0,0 2.31713,-0.93856 3.25569,1.37857c0.93856,2.31713 -1.37857,3.25569 -1.37857,3.25569c-7.87813,3.1804 -17.30032,5.94235 -25.84542,3.82071c-7.86108,-1.95181 -18.21916,-6.21588 -24.48721,-11.51709c-7.48711,-6.33224 -12.72827,-15.33548 -15.30271,-24.69012c-2.45966,-9.05584 -3.91455,-18.27573 -4.3388,-27.47759c-0.59879,0.13605 -2.29859,0.332 -2.96983,-1.59777zM191.56445,209.11584c0,0 0.89652,-0.57192 1.89314,-0.38503c1.49653,-5.64504 5.94288,-11.31931 9.71709,-14.24643c3.80758,-2.953 11.50176,-8.44063 16.15316,-3.61807c3.20344,3.32131 3.83685,11.512 4.55456,15.82919c0.04186,0.26195 0.08081,0.52734 0.11681,0.79581c4.68685,-0.29514 9.25118,-1.8031 13.70301,-3.6687c1.33895,-3.27621 3.12544,-6.2411 5.26372,-8.37215c3.46911,-3.45736 13.1895,-11.06114 17.65067,-4.41831c1.58527,2.36051 1.47352,8.67564 1.56973,11.4195c-0.16533,2.0317 -0.4184,4.0727 -0.75119,6.11171c10.33601,-1.08088 20.37654,-4.87823 30.99365,-3.57277c2.19639,0.27007 3.71384,0.66041 5.16815,1.194c2.69924,-5.984 4.58617,-12.21394 4.9717,-18.71809c0.51297,-8.65414 -2.64596,-18.79972 -6.67015,-26.36362c-1.43769,-2.70229 -3.47945,-5.29876 -5.596,-7.82852c-2.30702,5.89001 -4.7969,12.47421 -9.66881,16.66955c-1.41747,1.22062 -3.28757,1.78563 -4.93136,2.67845c-5.20092,2.47982 -10.06541,5.27374 -15.06389,8.13222c-2.42071,1.38433 -6.13192,3.88474 -9.11402,4.12479c-2.15941,0.17383 -4.48389,0.22908 -6.46738,-0.64215c-1.45893,-0.64082 -2.14801,-2.35612 -3.16031,-3.58672c-0.74928,-0.91087 -1.46892,-1.84945 -2.12033,-2.83271c-0.43176,-0.65171 -0.80094,-1.34677 -1.12106,-2.05998c-0.1086,-0.24196 -0.02712,-1.01355 -0.15394,-0.78062c-3.02373,5.55404 -5.90559,12.5846 -12.46106,15.17712c-4.86032,1.92213 -11.68891,-4.09909 -13.85624,-8.16108c-0.73099,2.30797 -2.10879,6.58325 -2.85452,7.22033c-2.69761,2.30458 -7.06437,1.65727 -9.81594,0.13467c-4.29677,-2.37764 -7.86353,-6.78908 -10.94365,-10.84389c-4.03027,11.41339 -6.10102,23.40563 -6.28422,35.52371c3.18235,-1.44826 6.28994,-3.00177 9.27868,-4.91221zM253.17291,211.29808c0.0373,-2.49972 2.53702,-2.46242 2.53702,-2.46242c0.21042,0.0036 0.42066,0.00553 0.63071,0.00585c0.38489,-2.17362 0.67166,-4.34868 0.84707,-6.50659c-0.04486,-1.32744 -0.08323,-6.82785 -0.64136,-8.39881c-0.4159,-1.17062 -2.22654,-0.14492 -2.57707,0.03119c-2.60793,1.31028 -5.1954,2.75847 -7.29436,4.83629c-0.89351,0.88451 -1.70485,1.93953 -2.42931,3.11224l0.84934,0.0051c0,0 2.47807,0.3304 2.14767,2.80847c-0.3304,2.47807 -2.80847,2.14767 -2.80847,2.14767l-0.30607,-0.42919c-0.79866,0.36592 -1.62017,0.74091 -2.46061,1.11719c-1.33861,4.04416 -1.89856,8.43395 -1.56739,11.90306c0.12858,1.34696 0.02188,2.79454 0.60991,4.01316c1.62644,3.37061 5.61006,2.86683 8.52429,3.80835c0.37359,0.1207 0.74406,0.25113 1.11142,0.39041c0.15467,-0.13424 0.30773,-0.2447 0.4584,-0.33437c1.81702,-4.3196 3.35826,-8.89697 4.49178,-13.54667c-0.68202,-0.11317 -2.15163,-0.57994 -2.12297,-2.50093zM215.61158,211.7562c0,0 -2.43461,-0.56806 -1.86655,-3.00266c0.56806,-2.43461 3.00266,-1.86655 3.00266,-1.86655c0.7255,0.17491 1.44809,0.3124 2.16782,0.41538c-0.60383,-3.78671 -0.99171,-9.59482 -3.08714,-12.86483c-0.75059,-1.17133 -3.57657,0.32118 -3.88119,0.46265c-2.28309,1.06032 -3.7423,2.01166 -5.69759,3.52688c-3.52053,2.72819 -5.63323,6.23098 -7.18568,10.402c-0.40791,1.09596 -1.35647,3.89339 -0.89227,5.2999c0.39399,1.19379 3.89272,3.40652 4.21385,3.66716c2.26645,1.83946 3.06087,3.58434 6.07455,3.40165c0,0 1.78397,0 2.33793,1.507c0.94821,-0.69823 2.19106,-0.35297 2.19106,-0.35297l1.57344,0.51526c0.61746,0.43552 1.16531,0.99214 1.85239,1.30655c0.92689,0.42415 1.20444,-1.69452 1.48031,-2.67581c0.75315,-2.6791 1.24176,-5.81774 1.41899,-8.77101c-1.24262,-0.26461 -2.46234,-0.68937 -3.70259,-0.9706zM190.80194,173.16479c2.88079,3.62389 5.05978,6.36951 8.52148,9.43706c0.69566,0.61645 4.89975,4.95606 6.70079,2.86011c1.38007,-1.60605 1.10473,-4.0901 1.75292,-6.106l0.03273,-0.0515l-0.01243,-0.00466l1.65769,-4.42042c0.34031,-0.9763 1.269,-1.67682 2.36131,-1.67682c0.998,0 1.85942,0.58479 2.26028,1.4304l2.21187,4.42368l-0.06341,0.0317c1.54377,1.90493 3.19767,3.70977 5.09538,5.14924c0.52516,0.39835 2.1154,1.73455 3.12272,1.17865c3.96928,-2.1905 6.15679,-6.46063 8.69728,-9.95807c1.31648,-1.81237 2.00007,-4.55434 4.10495,-5.32067c3.92483,-1.42891 7.00192,5.23482 8.5967,7.44165c0.5291,0.73215 0.71925,1.85047 1.53858,2.23086c1.92071,0.89174 4.96622,-0.20526 6.64306,-1.01375c6.655,-3.20868 12.73844,-7.45276 19.43395,-10.64179c1.303,-0.66524 2.80283,-1.03827 3.90901,-1.99572c4.65865,-4.03231 6.74932,-10.90074 8.94145,-16.38282l0.22351,-0.98483c-0.52395,-0.6403 -1.03154,-1.27767 -1.51347,-1.9128c-6.15327,-5.04412 -11.88396,-10.53993 -19.481,-13.36609c-7.49663,-2.7888 -15.19563,-3.53737 -23.07684,-3.63148c-4.51985,-0.05397 -9.70633,0.06636 -14.0703,1.47054c-4.04234,1.30069 -9.19233,4.07937 -12.81372,6.30748c-5.68,3.4947 -9.94604,9.69369 -13.69508,15.02431c-4.53023,6.44136 -8.25802,13.25593 -11.20144,20.32999c0.04048,0.04978 0.08116,0.10036 0.12202,0.15175z" fill="#ffffff" stroke="none" stroke-width="0.5"/><path d="M209.66374,212.87951c-2.15947,1.25964 -3.41911,-0.89983 -3.41911,-0.89983l-0.68886,-1.46802c-0.2424,-1.28659 -0.48481,-2.57317 -0.72721,-3.85976c0,0 -0.46288,-2.45677 1.9939,-2.91965c2.45677,-0.46288 2.91965,1.9939 2.91965,1.9939c0.2424,1.28659 0.48481,2.57317 0.72721,3.85976l0.09425,-0.1255c0,0 1.25964,2.15947 -0.89983,3.41911z" fill="#ffffff" stroke="none" stroke-width="0.5"/><path d="M248.92003,218.02666c-2.32809,0.91103 -3.23913,-1.41706 -3.23913,-1.41706l-0.67485,-2.24862c0.01865,-0.91366 0.0373,-1.82733 0.05595,-2.74099c0,0 0.05102,-2.49948 2.5505,-2.44846c2.49948,0.05102 2.44846,2.5505 2.44846,2.5505c-0.01865,0.91366 -0.0373,1.82733 -0.05595,2.74099l0.33207,0.32451c0,0 0.91103,2.32809 -1.41706,3.23913z" fill="#ffffff" stroke="none" stroke-width="0.5"/><path d="M248.80072,246.18255c1.79249,1.74269 0.0498,3.53518 0.0498,3.53518l-2.47755,2.42287c-8.29547,4.90712 -17.26816,9.78504 -27.29632,9.51104c-1.06228,-0.02902 -2.02777,-0.63733 -3.03337,-0.98088c-8.5245,-2.91227 -16.05997,-8.11237 -16.95474,-17.63005c0,0 -0.212,-2.491 2.279,-2.70299c2.491,-0.212 2.70299,2.279 2.70299,2.279c0.30674,4.18042 2.09632,6.68139 5.45367,9.32432c2.36706,1.86336 6.86857,4.72803 10.02365,4.73285c8.96635,0.01371 16.8491,-4.44135 24.27947,-8.83673l1.43823,-1.60481c0,0 1.74269,-1.79249 3.53518,-0.0498z" fill="#ffffff" stroke="none" stroke-width="0.5"/><path d="M85.54656,260.05413l3.63122,-1.06813c0.20012,4.13625 0.4119,8.26119 0.71021,12.39205c1.31089,7.34657 4.8214,13.11154 9.3761,18.83865c0.23603,0.29679 2.79165,3.94292 4.06683,4.30676c1.3727,0.39167 3.63475,-0.74946 4.72366,-1.13376c4.77892,-1.6866 5.72504,-2.70126 6.90042,-7.60173c0.49193,-2.051 0.92412,-2.83799 0.11096,-4.87918c-0.32952,-0.82716 -1.22074,-1.4781 -2.28888,-1.99472l-2.31,0.33686c-0.13146,0.02135 -0.26636,0.03245 -0.40385,0.03245c-1.38071,0 -2.5,-1.11929 -2.5,-2.5c0,-1.22887 0.88665,-2.25066 2.05511,-2.46053l2.15427,-0.43087c1.31751,-0.79323 2.82626,-1.29585 4.01255,-2.2736c0.45763,-0.37718 -2.46819,-3.38645 -2.60787,-3.47813c-1.30412,-0.85598 -3.12031,-0.47749 -4.54634,-1.10984l-2.79538,-0.60291c-1.1512,-0.22374 -2.02026,-1.23739 -2.02026,-2.45402c0,-0.96645 0.54839,-1.80481 1.35098,-2.22089l2.52843,-1.37414l0.01395,0.02567l0.06658,-0.06756c1.31262,-0.58514 3.08517,-0.70322 3.86507,-1.91032c0.91802,-1.42087 -0.79709,-2.86968 -2.05835,-3.01943c-1.00209,-0.11898 -2.05926,0.35892 -3.02655,0.07136c-1.00316,-0.29822 -1.59317,-1.49468 -2.60892,-1.7467c-1.80454,-0.44774 -3.68885,1.06699 -5.5243,0.77043c-1.65041,-0.26666 -3.90889,-0.08942 -4.78088,-1.5158c-0.89242,-1.4598 1.40481,-5.71988 2.14914,-7.27318c2.08733,-5.22224 0.07111,-10.85163 -3.25921,-15.17588c-0.92409,-1.19988 -1.21978,-2.83567 -2.24595,-3.9495c-0.57626,-0.62549 -1.76426,0.22276 -2.44333,0.73479c-1.84959,1.39463 -2.15781,5.11561 -2.24448,7.184c-0.09766,2.3307 0.68288,4.64629 1.47085,6.84192c1.32586,3.69446 1.68405,7.51354 2.88745,11.23191c0,0 0.76502,2.38007 -1.61505,3.14509c-2.38007,0.76502 -3.14509,-1.61505 -3.14509,-1.61505c-1.1657,-3.64912 -1.52036,-7.42492 -2.81836,-11.03163c-0.41407,-1.15056 -1.24212,-2.15639 -1.48316,-3.3552c-0.7666,-3.81261 -0.41097,-9.78974 1.44038,-13.37041c1.90943,-3.69299 6.85014,-6.31049 10.81061,-3.86682c0.33609,0.20737 2.83509,4.33823 3.34794,5.00063c2.5598,3.30627 3.25443,4.98022 4.20302,9.13012c0.33496,1.46541 1.55856,4.85438 1.34009,6.38485c-0.23284,1.63114 -1.09472,3.10819 -1.64208,4.66229c-0.25895,0.54243 -0.43378,1.14013 -0.68048,1.69061c0.5118,0.00358 1.03307,0.05384 1.53753,-0.00063c1.21569,-0.13126 2.42927,-0.77019 3.62912,-0.53458c1.1458,0.22499 1.86555,1.50115 2.98498,1.83335c0.85757,0.25449 1.80921,-0.36034 2.67925,-0.15245c4.81062,1.14943 7.74075,5.56726 5.43748,10.40589c-0.42179,0.88608 -1.34133,1.61112 -2.38049,2.21265c1.1673,0.38009 2.16948,0.74431 2.29795,0.82735c2.96612,1.91728 6.2975,6.47628 4.2167,10.17076c-0.28734,0.51018 -1.31291,1.27154 -2.49821,2.0377c0.9156,0.90137 1.65076,1.90166 1.98675,2.65649c1.43789,3.23038 0.94385,4.95447 0.22286,8.09864c-1.6272,7.09608 -6.02742,11.2017 -13.43397,12.35506c-5.64118,0.87846 -7.77205,-1.88939 -11.03943,-5.93172c-5.19636,-6.42883 -8.90904,-13.10002 -10.42628,-21.32515c-0.21874,-2.97295 -0.39403,-5.94178 -0.55014,-8.9142c-1.08289,-0.94417 -0.67409,-2.49754 -0.67409,-2.49754l0.53912,-0.15858c-0.0199,-0.40323 -0.03958,-0.80657 -0.0591,-1.21003z" fill="#ffffff" stroke="none" stroke-width="0.5"/><path d="M317.66844,317.43734c0.02258,-0.10689 0.04885,-0.20812 0.07844,-0.30399c-4.79106,-1.81333 -8.97667,-5.14622 -10.72814,-9.42719c-2.42456,-5.92616 -1.07918,-16.35083 2.27524,-21.73034c1.63169,-2.61676 5.84486,-6.67465 9.00341,-7.3842c4.16177,-0.93492 11.97125,1.39456 14.62172,4.68466c3.20483,3.97825 2.85034,9.66696 2.2131,14.15828c-0.8737,5.48626 -2.70571,9.67675 -5.00657,14.7125c-0.14215,0.31112 -0.27072,0.63141 -0.39324,0.95583c0.27945,-0.12622 0.55713,-0.27597 0.83302,-0.45196c0,0 2.17062,-1.24033 3.41095,0.93028c1.24033,2.17062 -0.93028,3.41095 -0.93028,3.41095c-2.04753,1.09293 -4.45693,1.61932 -6.97821,1.65728c-1.05517,0.63164 -2.24339,1.10506 -3.28637,1.7512l-3.18383,-0.00055c0,0 -2.44601,-0.51676 -1.92925,-2.96277zM324.40074,313.38871c0.54342,-0.98965 0.70394,-2.21732 1.15445,-3.26918c2.01835,-4.71242 3.87029,-8.35705 4.63608,-13.45121c0.56373,-3.27876 0.95524,-7.2979 -1.23143,-10.33849c-1.65567,-2.30223 -3.26262,-1.87782 -5.48605,-2.18621c-1.37647,-0.19092 -2.74946,-0.92133 -4.11542,-0.66587c-1.71061,0.31991 -5.08947,3.96552 -5.81997,5.14096c-1.93513,3.11376 -1.68589,5.01035 -2.10146,8.56451c-0.17868,1.52814 -0.60073,3.04323 -0.56219,4.5813c0.16357,6.52763 4.69143,9.40798 10.41941,10.85896c1.05336,0.26683 2.08922,0.55674 3.10657,0.76522z" fill="#ffffff" stroke="none" stroke-width="0.5"/></g></g></svg>