<svg version="1.1" xmlns="http://www.w3.org/2000/svg" xmlns:xlink="http://www.w3.org/1999/xlink" width="396.27118" height="8.52883" viewBox="0,0,396.27118,8.52883"><g transform="translate(-41.86441,-175.73558)"><g data-paper-data="{&quot;isPaintingLayer&quot;:true}" fill-rule="nonzero" stroke="none" stroke-width="0" stroke-linecap="butt" stroke-linejoin="miter" stroke-miterlimit="10" stroke-dasharray="" stroke-dashoffset="0" style="mix-blend-mode: normal"><path d="M41.86441,184.26442v-8.52883h393.14197v8.52883z" fill="#ffe500"/><path d="M131.40089,184.26442l17.85742,-8.52883h22.32177l-17.85742,8.52883z" fill="#292500"/><path d="M176.04442,184.26442l17.85738,-8.52883h22.32178l-17.85743,8.52883z" fill="#292500"/><path d="M220.68796,184.26442l17.85739,-8.52883h22.32177l-17.85742,8.52883z" fill="#292500"/><path d="M86.75734,184.26442l17.85739,-8.52883h22.32177l-17.85743,8.52883z" fill="#292500"/><path d="M42.11384,184.26442l17.85738,-8.52883h22.32178l-17.85743,8.52883z" fill="#292500"/><path d="M353.31289,184.26442l17.85743,-8.52883h22.32177l-17.85742,8.52883z" fill="#292500"/><path d="M397.95643,184.26442l17.85738,-8.52883h22.32178l-17.85743,8.52883z" fill="#292500"/><path d="M308.66935,184.26442l17.85738,-8.52883h22.32178l-17.85743,8.52883z" fill="#292500"/><path d="M264.02585,184.26442l17.85738,-8.52883h22.32177l-17.85742,8.52883z" fill="#292500"/></g></g></svg>