<svg version="1.1" xmlns="http://www.w3.org/2000/svg" xmlns:xlink="http://www.w3.org/1999/xlink" width="44.42298" height="57.26563" viewBox="0,0,44.42298,57.26563"><g transform="translate(-217.78851,-151.36718)"><g data-paper-data="{&quot;isPaintingLayer&quot;:true}" fill-rule="nonzero" stroke-linejoin="miter" stroke-miterlimit="10" stroke-dasharray="" stroke-dashoffset="0" style="mix-blend-mode: normal"><path d="M217.78852,203.7905v-16.00069h44.42297v16.00069z" fill="#353535" stroke="none" stroke-width="0" stroke-linecap="butt"/><path d="M217.78851,175.36822v-16.00069h44.42297v16.00069z" fill="#353535" stroke="none" stroke-width="0" stroke-linecap="butt"/><path d="M220.58792,208.63281v-57.26563c0,0 3.14614,3.36857 5.20094,3.36857c1.71458,0 5.24008,-2.1754 9.38841,-2.57461c2.40449,-0.23139 5.53119,1.86144 8.03093,1.16713c3.44721,-0.95746 6.85325,0.85914 9.64624,0.60213c3.86615,-0.35577 6.55764,-2.56322 6.55764,-2.56322v57.26563z" fill="#e00000" stroke="none" stroke-width="0" stroke-linecap="butt"/><path d="M224.31511,190.63204v-24.84318h31.36978v24.84318z" fill="#ff2424" stroke="#ff2424" stroke-width="0.5" stroke-linecap="butt"/><path d="M225.89413,200.10613l-1.05268,-8.63195h30.3171l-1.26321,8.63195z" data-paper-data="{&quot;index&quot;:null}" fill="#00fff9" stroke="#000000" stroke-width="1.5" stroke-linecap="butt"/><path d="M253.89534,156.73584l1.26322,8.84249h-30.3171l1.05268,-8.84249z" data-paper-data="{&quot;index&quot;:null}" fill="#00fff9" stroke="#000000" stroke-width="1.5" stroke-linecap="butt"/><path d="M229.36796,161.26234l2.52642,-4.00017l3.15803,4.00017" fill="none" stroke="#000000" stroke-width="0.5" stroke-linecap="round"/><path d="M233.99974,160.20966l-0.84214,2.31589" fill="none" stroke="#000000" stroke-width="0.5" stroke-linecap="round"/><path d="M233.99974,159.57806l5.05285,0.84214" fill="none" stroke="#000000" stroke-width="0.5" stroke-linecap="round"/></g></g></svg>