<svg version="1.1" xmlns="http://www.w3.org/2000/svg" xmlns:xlink="http://www.w3.org/1999/xlink" width="287.71393" height="36.94135" viewBox="0,0,287.71393,36.94135"><g transform="translate(-6.05877,-146.7008)"><g data-paper-data="{&quot;isPaintingLayer&quot;:true}" fill-rule="nonzero" stroke-linejoin="miter" stroke-miterlimit="10" stroke-dasharray="" stroke-dashoffset="0" style="mix-blend-mode: normal"><path d="M216.10868,148.11383v34.11531" data-paper-data="{&quot;index&quot;:null}" fill="none" stroke="#ffffff" stroke-width="0.5" stroke-linecap="round"/><path d="M293.77267,179.72638c0,2.01112 -64.40696,3.64144 -143.85695,3.64144c-79.44997,0 -143.85695,-1.63033 -143.85695,-3.64144c0,-2.01112 64.40698,-3.64144 143.85696,-3.64144c79.44999,0 143.85696,1.63033 143.85696,3.64144z" data-paper-data="{&quot;index&quot;:null}" fill="#cc2222" stroke="none" stroke-width="0" stroke-linecap="butt"/><path d="M293.77267,150.42277c0,2.01112 -64.40696,3.64144 -143.85695,3.64144c-79.44997,0 -143.85695,-1.63033 -143.85695,-3.64144c0,-2.01112 64.40698,-3.64144 143.85696,-3.64144c79.44999,0 143.85696,1.63033 143.85696,3.64144z" data-paper-data="{&quot;index&quot;:null}" fill="#cc2222" stroke="none" stroke-width="0" stroke-linecap="butt"/><path d="M6.20176,180.11687v-29.30079h287.42793v29.30079z" data-paper-data="{&quot;index&quot;:null}" fill="#cc2222" stroke="none" stroke-width="0" stroke-linecap="butt"/><path d="M292.34271,178.25549h-284.85395" data-paper-data="{&quot;index&quot;:null}" fill="none" stroke="#ffffff" stroke-width="0.5" stroke-linecap="round"/><path d="M7.48876,171.85885h284.85395" data-paper-data="{&quot;index&quot;:null}" fill="none" stroke="#ffffff" stroke-width="0.5" stroke-linecap="round"/><path d="M7.48876,165.46222h284.85395" data-paper-data="{&quot;index&quot;:null}" fill="none" stroke="#ffffff" stroke-width="0.5" stroke-linecap="round"/><path d="M7.48876,159.06561h284.85395" data-paper-data="{&quot;index&quot;:null}" fill="none" stroke="#ffffff" stroke-width="0.5" stroke-linecap="round"/><path d="M7.48876,152.66901h284.85395" data-paper-data="{&quot;index&quot;:null}" fill="none" stroke="#ffffff" stroke-width="0.5" stroke-linecap="round"/><path d="M248.50618,183.39215v-36.44135" data-paper-data="{&quot;index&quot;:null}" fill="none" stroke="#ffffff" stroke-width="0.5" stroke-linecap="round"/><path d="M232.30743,147.14465v35.85984" data-paper-data="{&quot;index&quot;:null}" fill="none" stroke="#ffffff" stroke-width="0.5" stroke-linecap="round"/><path d="M264.70494,183.00449v-35.666" data-paper-data="{&quot;index&quot;:null}" fill="none" stroke="#ffffff" stroke-width="0.5" stroke-linecap="round"/><path d="M280.90369,148.11381v34.11531" data-paper-data="{&quot;index&quot;:null}" fill="none" stroke="#ffffff" stroke-width="0.5" stroke-linecap="round"/><path d="M181.32501,183.39215v-36.44135" data-paper-data="{&quot;index&quot;:null}" fill="none" stroke="#ffffff" stroke-width="0.5" stroke-linecap="round"/><path d="M165.12626,147.14465v35.85984" data-paper-data="{&quot;index&quot;:null}" fill="none" stroke="#ffffff" stroke-width="0.5" stroke-linecap="round"/><path d="M197.52376,183.00449v-35.666" data-paper-data="{&quot;index&quot;:null}" fill="none" stroke="#ffffff" stroke-width="0.5" stroke-linecap="round"/><path d="M213.72252,182.22914v-34.11531" data-paper-data="{&quot;index&quot;:null}" fill="none" stroke="#ffffff" stroke-width="0.5" stroke-linecap="round"/><path d="M113.4965,183.39215v-36.44135" data-paper-data="{&quot;index&quot;:null}" fill="none" stroke="#ffffff" stroke-width="0.5" stroke-linecap="round"/><path d="M97.29774,147.14465v35.85984" data-paper-data="{&quot;index&quot;:null}" fill="none" stroke="#ffffff" stroke-width="0.5" stroke-linecap="round"/><path d="M129.69525,183.00449v-35.666" data-paper-data="{&quot;index&quot;:null}" fill="none" stroke="#ffffff" stroke-width="0.5" stroke-linecap="round"/><path d="M145.89401,182.22913v-34.11531" data-paper-data="{&quot;index&quot;:null}" fill="none" stroke="#ffffff" stroke-width="0.5" stroke-linecap="round"/><path d="M52.74214,183.39215v-36.44135" data-paper-data="{&quot;index&quot;:null}" fill="none" stroke="#ffffff" stroke-width="0.5" stroke-linecap="round"/><path d="M36.54338,147.14465v35.85984" data-paper-data="{&quot;index&quot;:null}" fill="none" stroke="#ffffff" stroke-width="0.5" stroke-linecap="round"/><path d="M68.94089,183.00448v-35.666" data-paper-data="{&quot;index&quot;:null}" fill="none" stroke="#ffffff" stroke-width="0.5" stroke-linecap="round"/><path d="M85.13965,182.22914v-34.11531" data-paper-data="{&quot;index&quot;:null}" fill="none" stroke="#ffffff" stroke-width="0.5" stroke-linecap="round"/><path d="M24.3853,182.22914v-34.11531" data-paper-data="{&quot;index&quot;:null}" fill="none" stroke="#ffffff" stroke-width="0.5" stroke-linecap="round"/></g></g></svg>